# xmcd
#
# Track frame offsets: 
#        150
#        18630
#        86978
#        144949
#        165687
#        247477
#
# Disc length: 4301 seconds
#
# Revision: 1
# Processed by: cddbd v1.5.2PL0 Copyright (c) Steve Scherf et al.
# Submitted via: ExactAudioCopy v0.99pb5
#
DISCID=5310cb06
DTITLE=Charles Mingus - Charles MIngus in Paris | CD1
DYEAR=1970
DGENRE=Jazz
TTITLE0=I left my heart in San Francisco
TTITLE1=Reincarnation of a lovebird
TTITLE2=Peggy's blue skylight
TTITLE3=Love is a dangerous necessity
TTITLE4=Blue bird
TTITLE5=Pithecanthropus erectus
EXTD=YEAR: 1970
EXTT0=
EXTT1=
EXTT2=
EXTT3=
EXTT4=
EXTT5=
PLAYORDER=
